<?xml version="1.0" encoding="utf-8"?>
<!-- Generator: Adobe Illustrator 16.0.3, SVG Export Plug-In . SVG Version: 6.00 Build 0)  -->
<!DOCTYPE svg PUBLIC "-//W3C//DTD SVG 1.1//EN" "http://www.w3.org/Graphics/SVG/1.1/DTD/svg11.dtd">
<svg version="1.1" id="Capa_1" xmlns="http://www.w3.org/2000/svg" xmlns:xlink="http://www.w3.org/1999/xlink" x="0px" y="0px"
	 width="128px" height="128px" viewBox="312 312 128 128" enable-background="new 312 312 128 128" xml:space="preserve">
<path fill="#5895ED" d="M416.905,336.047c-1.716,1.716-2.68,4.044-2.68,6.471c0,2.426,0.964,4.753,2.68,6.469
	c1.716,1.717,4.044,2.681,6.471,2.681s4.753-0.964,6.471-2.681c1.716-1.716,2.68-4.042,2.68-6.469c0-2.427-0.964-4.755-2.68-6.471
	c-1.718-1.716-4.044-2.68-6.471-2.68S418.621,334.332,416.905,336.047z M423.376,347.367c-1.289,0.004-2.527-0.505-3.44-1.415
	c-0.912-0.91-1.426-2.146-1.426-3.434c-0.007-1.97,1.175-3.75,2.992-4.509c1.817-0.759,3.914-0.346,5.309,1.044
	c1.396,1.389,1.814,3.484,1.063,5.304S425.345,347.367,423.376,347.367L423.376,347.367z"/>
<path fill="#5895ED" d="M423.376,355.71c-2.426-0.004-4.753,0.956-6.469,2.668c-1.718,1.713-2.682,4.039-2.682,6.464
	c0,2.421,0.961,4.744,2.673,6.457c1.712,1.712,4.033,2.676,6.455,2.677c2.421,0.001,4.743-0.959,6.457-2.669
	c1.714-1.71,2.678-4.031,2.682-6.452c0.003-2.421-0.957-4.745-2.666-6.459C428.117,356.68,425.797,355.714,423.376,355.71
	L423.376,355.71z M423.376,369.693c-1.289,0.004-2.527-0.504-3.44-1.415s-1.426-2.146-1.426-3.435c0-1.961,1.179-3.728,2.989-4.479
	c1.81-0.751,3.894-0.339,5.282,1.043c1.389,1.384,1.808,3.468,1.063,5.279C427.099,368.5,425.335,369.686,423.376,369.693
	L423.376,369.693z"/>
<path fill="#5895ED" d="M423.376,378.057c-2.426-0.004-4.753,0.955-6.469,2.668c-1.718,1.715-2.682,4.04-2.682,6.465
	c0,2.421,0.961,4.743,2.673,6.456s4.033,2.676,6.455,2.677c2.421,0.002,4.743-0.958,6.457-2.668
	c1.714-1.712,2.678-4.032,2.682-6.453c0.003-2.422-0.957-4.745-2.666-6.46C428.117,379.027,425.797,378.061,423.376,378.057
	L423.376,378.057z M419.936,390.624c-0.913-0.909-1.426-2.146-1.426-3.435c0-1.96,1.179-3.727,2.989-4.479
	c1.81-0.751,3.894-0.34,5.282,1.044c1.389,1.382,1.808,3.466,1.063,5.279c-0.745,1.812-2.509,2.998-4.468,3.005
	C422.087,392.043,420.849,391.534,419.936,390.624z"/>
<path fill="#EA4747" d="M423.376,361.332c-0.873,0-1.71,0.347-2.326,0.964c-0.618,0.616-0.964,1.453-0.964,2.327
	c0,1.33,0.801,2.53,2.03,3.039c1.23,0.509,2.645,0.228,3.586-0.712c0.94-0.941,1.223-2.356,0.713-3.585
	C425.906,362.133,424.706,361.332,423.376,361.332L423.376,361.332z"/>
<path opacity="0.5" fill="#FFFFFF" d="M315.354,342.602c0,1.657,1.918,3,4.284,3h87.234c2.366,0,4.284-1.343,4.284-3
	s-1.918-3-4.284-3h-87.234C317.272,339.602,315.354,340.945,315.354,342.602z"/>
<path fill="#FFFFFF" d="M340.1,364.622c0,1.657,1.918,3,4.284,3h62.489c2.366,0,4.284-1.343,4.284-3c0-1.657-1.918-3-4.284-3
	h-62.489C342.018,361.622,340.1,362.965,340.1,364.622z"/>
<path opacity="0.5" fill="#FFFFFF" d="M411.161,386.744c0-1.657-1.918-3.001-4.284-3.001h-34.408c-2.366,0-4.284,1.344-4.284,3.001
	c0,1.656,1.918,2.999,4.284,2.999h34.408C409.243,389.743,411.161,388.4,411.161,386.744z"/>
<path fill="#5895ED" d="M423.376,400.381c-2.424,0-4.749,0.963-6.465,2.674c-1.716,1.713-2.682,4.035-2.686,6.459
	c-0.004,2.429,0.955,4.758,2.67,6.478c1.713,1.719,4.041,2.687,6.469,2.689c2.427,0.003,4.758-0.958,6.476-2.674
	c1.718-1.714,2.685-4.042,2.687-6.47c0.001-2.428-0.963-4.757-2.679-6.474C428.132,401.346,425.803,400.381,423.376,400.381
	L423.376,400.381z M423.376,414.38c-1.29,0-2.528-0.512-3.441-1.425s-1.425-2.151-1.425-3.441c0-1.968,1.186-3.742,3.004-4.496
	c1.818-0.753,3.912-0.336,5.303,1.055c1.392,1.392,1.809,3.485,1.056,5.305C427.119,413.194,425.344,414.38,423.376,414.38
	L423.376,414.38z"/>
<path opacity="0.5" fill="#FFFFFF" d="M340.1,408.864c0,1.656,1.918,3,4.284,3h62.489c2.366,0,4.284-1.344,4.284-3s-1.918-3-4.284-3
	h-62.489C342.018,405.864,340.1,407.208,340.1,408.864z"/>
</svg>
