<?xml version="1.0" encoding="utf-8"?>
<!-- Generator: Adobe Illustrator 16.0.3, SVG Export Plug-In . SVG Version: 6.00 Build 0)  -->
<!DOCTYPE svg PUBLIC "-//W3C//DTD SVG 1.1//EN" "http://www.w3.org/Graphics/SVG/1.1/DTD/svg11.dtd">
<svg version="1.1" id="Capa_1" xmlns="http://www.w3.org/2000/svg" xmlns:xlink="http://www.w3.org/1999/xlink" x="0px" y="0px"
	 width="128px" height="128px" viewBox="312 312 128 128" enable-background="new 312 312 128 128" xml:space="preserve">
<path fill="#FFFFFF" d="M373.293,351.846c0,1.487,1.218,2.705,2.707,2.707l0.001-0.001c0.744,0.002,1.423-0.306,1.914-0.793
	c0.49-0.49,0.794-1.168,0.792-1.913l0.002-10.831c-0.002-1.489-1.219-2.706-2.708-2.706c-0.746,0-1.421,0.305-1.911,0.794
	c-0.491,0.492-0.796,1.169-0.796,1.914V351.846z M375.099,341.017c0-0.323,0.167-0.538,0.266-0.639
	c0.1-0.099,0.314-0.266,0.636-0.263c0.488-0.002,0.901,0.411,0.901,0.901v10.83c0,0.323-0.168,0.536-0.268,0.636
	c-0.096,0.098-0.313,0.266-0.634,0.265c-0.322,0.001-0.537-0.167-0.636-0.267c-0.1-0.098-0.268-0.312-0.267-0.635L375.099,341.017z"
	/>
<g>
	<defs>
		
			<rect id="SVGID_1_" x="330.745" y="330.745" transform="matrix(-0.7071 0.7071 -0.7071 -0.7071 907.744 375.9992)" width="90.51" height="90.51"/>
	</defs>
	<clipPath id="SVGID_2_">
		<use xlink:href="#SVGID_1_"  overflow="visible"/>
	</clipPath>
	<g opacity="0.5" clip-path="url(#SVGID_2_)">
		<path fill="#FFFFFF" d="M376,324.208c-16.277,0.001-29.594,13.318-29.596,29.596l0.001,44.392
			c0,16.278,13.319,29.598,29.596,29.597c16.279,0,29.598-13.318,29.596-29.597l0.001-44.392
			c-0.001-16.274-13.319-29.593-29.598-29.593L376,324.208z M376.002,337.405c0.957,0.003,1.863,0.378,2.548,1.063
			c0.685,0.684,1.06,1.589,1.06,2.55l0.003,10.829c-0.001,0.957-0.379,1.862-1.062,2.548c-0.686,0.684-1.592,1.06-2.549,1.061
			c-1.991,0-3.61-1.62-3.611-3.611v-10.827c0.001-0.961,0.378-1.864,1.064-2.551C374.139,337.784,375.045,337.407,376.002,337.405
			L376.002,337.405z M403.51,398.195c0,7.316-2.869,14.214-8.082,19.427s-12.111,8.081-19.426,8.081
			c-7.314,0.001-14.214-2.868-19.426-8.081c-5.211-5.211-8.082-12.109-8.082-19.427v-44.391c-0.001-7.316,2.869-14.214,8.081-19.426
			c4.996-4.997,11.546-7.834,18.523-8.059v9.374c-1.128,0.192-2.144,0.721-2.921,1.498c-0.981,0.983-1.591,2.336-1.593,3.827
			l0.001,10.828c0,2.671,1.963,4.889,4.514,5.327l-0.002,24.552h1.804l-0.001-24.553c1.128-0.194,2.145-0.723,2.923-1.5
			c0.982-0.982,1.591-2.337,1.59-3.824l-0.002-10.832c0.001-2.669-1.96-4.888-4.511-5.321l-0.001-9.375
			c6.978,0.226,13.527,3.062,18.525,8.06c5.211,5.211,8.08,12.111,8.079,19.424L403.51,398.195z"/>
	</g>
</g>
<polyline fill="#FFFFFF" points="341.25,336.142 344.25,341.142 341.25,346.142 "/>
<polyline fill="#FFFFFF" points="336.312,351.08 331.312,354.08 326.312,351.08 "/>
<polyline fill="#FFFFFF" points="321.373,346.142 318.373,341.142 321.373,336.142 "/>
<polyline fill="#FFFFFF" points="326.312,331.203 331.312,328.203 336.312,331.203 "/>
<rect x="385.331" y="336.833" fill="none" width="11.169" height="13.914"/>
<text transform="matrix(1 0 0 1 385.3311 345.4253)" fill="#5895ED" font-family="'ArialMT'" font-size="12">2</text>
<rect x="327.833" y="336.833" fill="none" width="11.168" height="13.914"/>
<text transform="matrix(1 0 0 1 327.8335 345.4253)" fill="#5895ED" font-family="'ArialMT'" font-size="12">1</text>
<line fill="none" stroke="#FFFFFF" stroke-width="6" stroke-miterlimit="10" x1="331.312" y1="331.203" x2="331.312" y2="334.375"/>
<line fill="none" stroke="#FFFFFF" stroke-width="6" stroke-miterlimit="10" x1="331.312" y1="347.908" x2="331.312" y2="351.08"/>
<line fill="none" stroke="#FFFFFF" stroke-width="6" stroke-miterlimit="10" x1="321.374" y1="341.142" x2="324.545" y2="341.142"/>
<line fill="none" stroke="#FFFFFF" stroke-width="6" stroke-miterlimit="10" x1="338.079" y1="341.142" x2="341.25" y2="341.142"/>
</svg>
