<?xml version="1.0" encoding="utf-8"?>
<!-- Generator: Adobe Illustrator 16.0.3, SVG Export Plug-In . SVG Version: 6.00 Build 0)  -->
<!DOCTYPE svg PUBLIC "-//W3C//DTD SVG 1.1//EN" "http://www.w3.org/Graphics/SVG/1.1/DTD/svg11.dtd">
<svg version="1.1" id="Capa_1" xmlns="http://www.w3.org/2000/svg" xmlns:xlink="http://www.w3.org/1999/xlink" x="0px" y="0px"
	 width="128px" height="128px" viewBox="312 312 128 128" enable-background="new 312 312 128 128" xml:space="preserve">
<g>
	<path fill="#FFFFFF" d="M408.044,387.967h22.894v1.691h-22.894V387.967z"/>
	<path fill="#FFFFFF" d="M369.932,387.967h18.471v1.691h-18.471V387.967z"/>
	<path fill="#FFFFFF" d="M336.112,387.967h5.854v1.691h-5.854V387.967z"/>
	<path fill="#FFFFFF" d="M321.545,387.967h7.804v1.691h-7.804V387.967z"/>
	<path fill="#FFFFFF" d="M348.599,387.967h14.569v1.691h-14.569V387.967z"/>
	<path fill="#FFFFFF" d="M395.036,387.967h6.113v1.691h-6.113V387.967z"/>
	<path fill="#FFFFFF" d="M332.729,393.04c-2.341,0-4.292-1.951-4.292-4.293c0-2.341,1.952-4.292,4.292-4.292
		c2.341,0,4.293,1.951,4.293,4.292C337.021,391.09,335.071,393.04,332.729,393.04z M332.729,386.276
		c-1.431,0-2.471,1.171-2.471,2.471c0,1.432,1.171,2.472,2.471,2.472c1.301,0,2.471-1.171,2.471-2.472
		C335.201,387.447,334.16,386.276,332.729,386.276z"/>
	<path fill="#FFFFFF" d="M345.218,393.04c-2.341,0-4.293-1.951-4.293-4.293c0-2.341,1.952-4.292,4.293-4.292
		s4.292,1.951,4.292,4.292C349.51,391.09,347.559,393.04,345.218,393.04z M345.218,386.276c-1.432,0-2.471,1.171-2.471,2.471
		c0,1.432,1.17,2.472,2.471,2.472c1.3,0,2.471-1.171,2.471-2.472C347.819,387.447,346.649,386.276,345.218,386.276z"/>
	<path fill="#FFFFFF" d="M366.551,393.04c-2.341,0-4.293-1.951-4.293-4.293c0-2.341,1.952-4.292,4.293-4.292
		c2.341,0,4.292,1.951,4.292,4.292C370.843,391.09,368.892,393.04,366.551,393.04z M366.551,386.276
		c-1.432,0-2.471,1.171-2.471,2.471c0,1.432,1.17,2.472,2.471,2.472c1.431,0,2.471-1.171,2.471-2.472
		C369.021,387.447,367.98,386.276,366.551,386.276z"/>
	<path fill="#FFFFFF" d="M391.784,393.04c-2.341,0-4.293-1.951-4.293-4.293c0-2.341,1.952-4.292,4.293-4.292
		s4.292,1.951,4.292,4.292C396.076,391.09,393.995,393.04,391.784,393.04z M391.784,386.276c-1.432,0-2.472,1.171-2.472,2.471
		c0,1.432,1.171,2.472,2.472,2.472c1.431,0,2.471-1.171,2.471-2.472C394.255,387.447,393.084,386.276,391.784,386.276z"/>
	<path fill="#FFFFFF" d="M404.66,393.04c-2.342,0-4.293-1.951-4.293-4.293c0-2.341,1.951-4.292,4.293-4.292
		c2.341,0,4.293,1.951,4.293,4.292C408.953,391.09,407.001,393.04,404.66,393.04z M404.66,386.276c-1.432,0-2.471,1.171-2.471,2.471
		c0,1.432,1.17,2.472,2.471,2.472s2.471-1.171,2.471-2.472C407.132,387.447,405.961,386.276,404.66,386.276z"/>
	<path fill="#FFFFFF" d="M331.819,368.977h1.691v16.52h-1.691V368.977z"/>
	<path fill="#FFFFFF" d="M328.438,358.96h12.227v1.691h-12.227V358.96z"/>
	<path fill="#FFFFFF" d="M328.438,361.822h8.975v1.691h-8.975V361.822z"/>
	<path fill="#FFFFFF" d="M328.438,364.684h13.528v1.691h-13.528V364.684z"/>
	<path fill="#FFFFFF" d="M341.314,368.065h12.227v1.691h-12.227V368.065z"/>
	<path fill="#FFFFFF" d="M341.314,370.927h13.528v1.691h-13.528V370.927z"/>
	<path fill="#FFFFFF" d="M341.314,373.921h10.016v1.691h-10.016V373.921z"/>
	<path fill="#FFFFFF" d="M399.329,358.96h12.227v1.691h-12.227V358.96z"/>
	<path fill="#FFFFFF" d="M399.329,361.822h9.105v1.691h-9.105V361.822z"/>
	<path fill="#FFFFFF" d="M399.329,364.684h13.528v1.691h-13.528V364.684z"/>
	<path fill="#FFFFFF" d="M385.802,368.716h8.975v1.691h-8.975V368.716z"/>
	<path fill="#FFFFFF" d="M385.802,371.578h13.528v1.691h-13.528V371.578z"/>
	<path fill="#FFFFFF" d="M385.802,374.44h10.016v1.691h-10.016V374.44z"/>
	<path fill="#FFFFFF" d="M362.519,363.772h12.227v1.691h-12.227V363.772z"/>
	<path fill="#FFFFFF" d="M362.519,366.634h8.975v1.691h-8.975V366.634z"/>
	<path fill="#FFFFFF" d="M344.438,378.211h1.691v7.284h-1.691V378.211z"/>
	<path fill="#FFFFFF" d="M390.875,378.211h1.69v7.284h-1.69V378.211z"/>
	<path fill="#FFFFFF" d="M365.639,370.669h1.691v14.828h-1.691V370.669z"/>
	<path fill="#FFFFFF" d="M403.751,368.065h1.69v17.299h-1.69V368.065z"/>
</g>
<polyline fill="#5895ED" points="431.109,383.813 434.109,388.813 431.109,393.812 "/>
<line fill="none" stroke="#5895ED" stroke-width="6" stroke-miterlimit="10" x1="431.109" y1="388.812" x2="427.938" y2="388.812"/>
<polyline fill="#5895ED" points="321.459,393.812 318.459,388.812 321.459,383.813 "/>
<line fill="none" stroke="#5895ED" stroke-width="6" stroke-miterlimit="10" x1="321.459" y1="388.813" x2="324.631" y2="388.813"/>
<g>
	<g>
		<line fill="none" stroke="#EA4747" stroke-miterlimit="10" x1="376" y1="376.26" x2="376" y2="401.364"/>
		<g>
			<circle fill="#EA4747" cx="376" cy="376.335" r="1.504"/>
		</g>
		<g>
			<circle fill="#EA4747" cx="376" cy="401.289" r="1.504"/>
		</g>
	</g>
</g>
</svg>
